<mxfile host="app.diagrams.net" modified="2022-09-28T16:30:44.430Z" agent="5.0 (X11; Linux x86_64) AppleWebKit/537.36 (KHTML, like Gecko) Chrome/105.0.0.0 Safari/537.36" etag="-x9uhEMBNpqj6zDcDdpQ" version="20.3.7" type="github">
  <diagram id="a8z16C7fn5tGmQavF2Q3" name="Page-1">
    <mxGraphModel dx="868" dy="493" grid="1" gridSize="10" guides="1" tooltips="1" connect="1" arrows="1" fold="1" page="1" pageScale="1" pageWidth="850" pageHeight="1100" math="0" shadow="0">
      <root>
        <mxCell id="0" />
        <mxCell id="1" parent="0" />
        <mxCell id="DURIUHNlFWYkpHxzWE2k-3" style="edgeStyle=orthogonalEdgeStyle;rounded=0;orthogonalLoop=1;jettySize=auto;html=1;exitX=0.5;exitY=0.5;exitDx=0;exitDy=0;exitPerimeter=0;endArrow=none;endFill=0;" edge="1" parent="1" source="DURIUHNlFWYkpHxzWE2k-1" target="DURIUHNlFWYkpHxzWE2k-2">
          <mxGeometry relative="1" as="geometry" />
        </mxCell>
        <mxCell id="DURIUHNlFWYkpHxzWE2k-1" value="User" style="shape=umlActor;verticalLabelPosition=bottom;verticalAlign=top;html=1;outlineConnect=0;" vertex="1" parent="1">
          <mxGeometry x="70" y="230" width="30" height="60" as="geometry" />
        </mxCell>
        <mxCell id="DURIUHNlFWYkpHxzWE2k-5" style="edgeStyle=orthogonalEdgeStyle;rounded=0;orthogonalLoop=1;jettySize=auto;html=1;exitX=1;exitY=0.5;exitDx=0;exitDy=0;endArrow=none;endFill=0;" edge="1" parent="1" source="DURIUHNlFWYkpHxzWE2k-2" target="DURIUHNlFWYkpHxzWE2k-4">
          <mxGeometry relative="1" as="geometry" />
        </mxCell>
        <mxCell id="DURIUHNlFWYkpHxzWE2k-2" value="Preencher formulÃ¡rio google forms&amp;nbsp;" style="rounded=0;whiteSpace=wrap;html=1;" vertex="1" parent="1">
          <mxGeometry x="180" y="230" width="120" height="60" as="geometry" />
        </mxCell>
        <mxCell id="DURIUHNlFWYkpHxzWE2k-4" value="Google sheets" style="rounded=0;whiteSpace=wrap;html=1;" vertex="1" parent="1">
          <mxGeometry x="380" y="230" width="120" height="60" as="geometry" />
        </mxCell>
      </root>
    </mxGraphModel>
  </diagram>
</mxfile>
